<svg version="1.1" id="Layer_1" xmlns="http://www.w3.org/2000/svg" xmlns:xlink="http://www.w3.org/1999/xlink" x="0px"
     y="0px" viewBox="0 0 164.4 75.5" style="enable-background:new 0 0 164.4 75.5;" xml:space="preserve" stroke="#330171" fill="#330171">
                    Cleo                    <g>
                    <path class="st0" d="M26.3,65.7c5,0,9-1.4,11.4-2.2c1.8-0.5,2.5-0.5,2.5,1.3v5.3c0,1.5-0.4,2-1.5,2.5c-1.8,0.8-6.6,2.4-13.8,2.4
                            C7.8,75,0,65.4,0,48.1s7.9-26.9,24.8-26.9c6.7,0,11.9,1.6,13.6,2.3c1.5,0.6,1.8,1.1,1.8,2.4v5.9c0,1.1-0.4,1.6-1.8,0.9
                            c-2.1-0.8-5.5-2.4-11.6-2.4c-9.2,0-15.7,4.7-15.7,17.6C11.1,60.6,17.2,65.7,26.3,65.7z"/>
    <path class="st0" d="M56.4,74.2h-5.7c-1.8,0-2.2-0.4-2.2-2.3V2.3C48.5,0.4,49,0,50.7,0h5.7c1.8,0,2.3,0.4,2.3,2.3v69.6
                            C58.8,73.8,58.2,74.2,56.4,74.2z"/>
    <path class="st0" d="M109.4,38.7c0,12.4-10.2,15.9-20.2,15.9c-4.9,0-9.2-0.8-13.3-2.3C77.1,61.9,82.6,66,92.5,66
                            c4.6,0,9.2-1,12.8-2.1c1.8-0.8,2.6-1.2,3.3-1.2c0.6,0,1,0.3,1,1.3v5.2c0,1.5-0.5,1.9-2,2.7c-1.8,0.9-7.5,2.9-15.6,2.9
                            c-17.4,0-26.3-9.7-26.3-26.5c0-17.1,9.3-27.2,23.8-27.2C103.6,21.2,109.4,29,109.4,38.7z M75.8,44.4c4.1,1.4,8.4,1.9,12.3,1.9
                            c7.3,0,11.6-2.5,11.6-8c0-5.6-4.1-8.8-10.2-8.8C82.8,29.6,77.1,34.2,75.8,44.4z"/>
    <path class="st0" d="M140,21.2c17.5,0,24.4,12.2,24.4,27.1c0,14.8-6.9,27.2-24.4,27.2c-17.6,0-24.4-12.4-24.4-27.2
                            C115.6,33.4,122.4,21.2,140,21.2z M126.4,48.4c0,10.9,3.9,17.7,13.6,17.7c9.6,0,13.6-6.8,13.6-17.7c0-11-4-17.8-13.6-17.8
                            C130.3,30.6,126.4,37.4,126.4,48.4z"/>
                    </g>
                    </svg>
